<?xml version="1.0" standalone="no"?>
<!DOCTYPE svg PUBLIC "-//W3C//DTD SVG 20010904//EN"
 "http://www.w3.org/TR/2001/REC-SVG-20010904/DTD/svg10.dtd">
<svg version="1.0" xmlns="http://www.w3.org/2000/svg"
 width="600.000000pt" height="600.000000pt" viewBox="0 0 600.000000 600.000000"
 preserveAspectRatio="xMidYMid meet">
<metadata>
Created by potrace 1.15, written by Peter Selinger 2001-2017
</metadata>
<g transform="translate(0.000000,600.000000) scale(0.100000,-0.100000)"
fill="#000000" stroke="none">
<path d="M1943 1128 c-29 -32 -36 -63 -22 -90 18 -33 40 -47 74 -47 34 0 56
14 73 46 18 32 15 48 -14 82 -32 39 -80 42 -111 9z"/>
<path d="M4055 1125 c-50 -49 -15 -135 55 -135 41 0 80 39 80 80 0 41 -39 80
-80 80 -19 0 -40 -9 -55 -25z"/>
<path d="M930 1104 c0 -3 66 -112 147 -242 81 -130 147 -244 147 -252 0 -8
-69 -118 -153 -243 -84 -126 -155 -235 -158 -243 -4 -11 9 -14 70 -14 l75 0
127 205 127 205 122 -205 121 -205 78 0 c43 0 77 4 75 8 -1 5 -72 117 -156
250 l-154 242 23 37 c13 21 78 124 145 229 168 263 159 234 72 234 l-73 0
-111 -183 c-61 -100 -117 -192 -123 -205 -12 -22 -20 -9 -129 182 l-117 205
-77 1 c-43 0 -78 -3 -78 -6z"/>
<path d="M3277 1103 c-4 -3 -7 -228 -7 -500 l0 -493 70 0 70 0 0 215 0 215
175 0 175 0 0 60 0 60 -175 0 -175 0 0 165 0 165 190 0 190 0 0 60 0 60 -253
0 c-140 0 -257 -3 -260 -7z"/>
<path d="M2624 829 c-17 -5 -52 -27 -77 -50 l-47 -41 0 46 0 46 -65 0 -65 0 0
-360 0 -360 65 0 64 0 3 249 3 249 30 44 c37 53 85 78 148 78 64 0 102 -21
129 -73 22 -40 23 -55 26 -294 l4 -253 65 0 65 0 -4 268 c-4 233 -6 273 -23
312 -45 109 -107 151 -221 149 -38 0 -83 -5 -100 -10z"/>
<path d="M4721 820 c-24 -11 -59 -36 -77 -56 l-34 -35 0 50 0 51 -65 0 -65 0
0 -360 0 -360 65 0 65 0 0 224 c0 245 7 286 58 339 40 43 75 57 136 57 47 0
60 -4 89 -30 51 -45 57 -79 57 -349 l0 -241 65 0 65 0 0 258 c0 288 -6 329
-62 396 -17 21 -50 47 -72 57 -57 26 -167 25 -225 -1z"/>
<path d="M1930 470 l0 -360 65 0 65 0 0 360 0 360 -65 0 -65 0 0 -360z"/>
<path d="M4047 823 c-4 -3 -7 -165 -7 -360 l0 -353 65 0 65 0 0 360 0 360 -58
0 c-32 0 -62 -3 -65 -7z"/>
</g>
</svg>
