<?xml version="1.0" standalone="no"?>
<!DOCTYPE svg PUBLIC "-//W3C//DTD SVG 20010904//EN"
 "http://www.w3.org/TR/2001/REC-SVG-20010904/DTD/svg10.dtd">
<svg version="1.0" xmlns="http://www.w3.org/2000/svg"
 width="1600.000000pt" height="900.000000pt" viewBox="0 0 1600.000000 900.000000"
 preserveAspectRatio="xMidYMid meet">
<metadata>
Created by potrace 1.15, written by Peter Selinger 2001-2017
</metadata>
<g transform="translate(0.000000,900.000000) scale(0.100000,-0.100000)"
fill="#000000" stroke="none">
<path d="M2860 6456 c-75 -26 -100 -38 -100 -47 0 -5 -7 -9 -15 -9 -8 0 -24
-8 -36 -17 -43 -36 -79 -71 -79 -77 0 -4 -11 -19 -25 -34 -14 -15 -31 -42 -37
-59 -7 -18 -16 -33 -20 -33 -4 0 -8 -9 -8 -20 0 -11 -4 -20 -9 -20 -13 0 -24
-106 -25 -225 l-1 -100 -195 -6 c-201 -6 -380 -25 -380 -40 0 -5 -15 -9 -33
-9 -18 0 -37 -4 -42 -8 -6 -5 -30 -14 -55 -21 -25 -7 -63 -20 -85 -30 -22 -10
-55 -22 -72 -26 -18 -3 -33 -11 -33 -16 0 -5 -7 -9 -15 -9 -14 0 -34 -9 -75
-32 -8 -4 -40 -20 -70 -35 -30 -15 -63 -35 -73 -44 -9 -9 -30 -22 -45 -30 -27
-14 -42 -24 -67 -46 -7 -7 -18 -13 -24 -13 -6 0 -11 -3 -11 -7 0 -5 -16 -19
-36 -33 -46 -31 -92 -72 -205 -183 -49 -49 -89 -84 -89 -78 0 6 -12 14 -28 17
-15 4 -31 10 -37 13 -69 46 -261 43 -352 -4 -15 -8 -36 -15 -45 -15 -10 0 -18
-4 -18 -10 0 -5 -6 -10 -12 -10 -7 0 -40 -29 -73 -63 -72 -76 -87 -94 -101
-127 -35 -78 -44 -102 -44 -118 0 -10 -5 -23 -11 -29 -6 -6 -9 -50 -6 -119 4
-115 10 -149 33 -201 8 -17 14 -36 14 -42 0 -6 5 -11 10 -11 6 0 10 -7 10 -15
0 -15 15 -36 63 -88 15 -17 27 -33 27 -36 0 -3 20 -19 45 -36 24 -16 45 -33
45 -37 0 -5 9 -8 20 -8 11 0 20 -4 20 -10 0 -5 7 -10 15 -10 12 0 15 -18 16
-102 0 -57 4 -128 9 -158 24 -167 34 -220 42 -220 4 0 8 -9 8 -20 0 -11 4 -28
8 -38 54 -110 82 -171 82 -181 0 -6 5 -11 10 -11 6 0 10 -7 10 -15 0 -8 4 -15
9 -15 5 0 14 -13 21 -30 7 -17 16 -30 21 -30 4 0 11 -9 14 -20 6 -20 178 -200
190 -200 6 0 9 -2 65 -50 19 -17 45 -33 58 -36 12 -3 22 -10 22 -15 0 -5 7 -9
15 -9 8 0 15 -4 15 -9 0 -5 14 -12 30 -16 16 -4 30 -11 30 -16 0 -5 6 -9 13
-9 7 0 32 -9 55 -20 22 -11 50 -20 62 -20 11 0 20 -4 20 -10 0 -5 10 -10 23
-10 13 0 27 -4 33 -9 10 -10 82 -24 249 -47 77 -11 143 -14 220 -9 165 9 385
42 385 56 0 5 16 9 35 9 19 0 35 5 35 10 0 6 11 10 25 10 14 0 33 4 43 9 42
23 116 52 143 58 16 3 29 9 29 14 0 5 9 9 19 9 11 0 21 3 23 8 3 7 61 39 126
71 17 8 32 19 32 23 0 4 9 8 19 8 10 0 21 6 24 13 3 6 20 20 40 30 l34 19 49
-38 c69 -53 157 -91 241 -106 61 -10 81 -9 143 6 40 9 88 26 108 36 20 11 42
20 49 20 7 0 13 5 13 10 0 6 5 10 11 10 16 0 129 112 129 127 0 6 3 13 8 15 9
4 57 102 71 147 6 19 11 48 11 64 0 17 5 46 12 64 10 27 10 38 0 53 -7 11 -12
39 -12 63 0 25 -11 70 -25 103 -14 32 -31 71 -38 87 -6 15 -15 27 -19 27 -4 0
-8 5 -8 11 0 6 -20 31 -45 56 -25 24 -45 45 -45 47 0 2 16 46 35 97 19 52 35
106 35 122 0 15 5 27 10 27 6 0 10 20 10 44 0 27 5 46 12 48 10 4 13 62 13
246 0 179 -3 244 -13 254 -6 6 -12 29 -12 50 0 21 -4 38 -10 38 -5 0 -10 9
-10 20 0 19 -7 38 -41 116 -10 23 -21 54 -25 68 -3 14 -10 26 -15 26 -5 0 -9
5 -9 11 0 9 -85 144 -100 159 -3 3 -17 21 -31 40 -15 19 -41 50 -58 67 -30 31
-39 53 -23 53 14 0 119 106 126 128 4 12 11 22 15 22 4 0 18 24 30 53 13 28
27 60 32 69 5 10 9 29 9 43 0 14 5 25 10 25 6 0 10 41 10 104 0 59 -4 108 -10
111 -5 3 -10 19 -10 36 0 16 -3 29 -8 29 -4 0 -13 18 -20 41 -7 22 -25 59 -39
82 -33 51 -134 157 -150 157 -6 0 -13 4 -15 8 -1 5 -36 20 -76 35 -62 23 -88
27 -170 26 -53 -1 -113 -7 -132 -13z m-297 -832 c28 -5 54 -22 99 -65 33 -32
69 -61 79 -64 11 -4 19 -11 19 -16 0 -5 9 -9 20 -9 11 0 20 -4 20 -10 0 -5 11
-10 24 -10 13 0 26 -5 28 -10 2 -6 45 -14 97 -17 l93 -6 58 -58 c32 -32 68
-73 81 -91 13 -18 31 -41 41 -52 9 -10 20 -32 23 -47 4 -16 11 -29 16 -29 5 0
9 -7 9 -15 0 -8 4 -15 8 -15 5 0 15 -23 22 -51 8 -27 18 -52 22 -55 4 -3 8
-15 8 -28 0 -12 6 -28 13 -34 16 -17 17 -442 1 -463 -6 -8 -14 -27 -16 -44 -6
-32 -59 -187 -68 -195 -3 -3 -16 -29 -29 -57 -27 -58 -23 -56 -138 -74 -46 -7
-83 -16 -83 -21 0 -4 -9 -8 -20 -8 -11 0 -20 -3 -20 -8 0 -4 -14 -13 -32 -21
-40 -18 -167 -147 -174 -178 -4 -13 -10 -23 -15 -23 -5 0 -9 -8 -9 -18 0 -10
-4 -22 -10 -28 -12 -12 -30 -89 -37 -158 -4 -37 -10 -50 -24 -53 -10 -3 -19
-9 -19 -14 0 -5 -9 -9 -19 -9 -11 0 -21 -3 -23 -7 -5 -13 -130 -72 -165 -79
-18 -4 -33 -10 -33 -15 0 -5 -13 -9 -30 -9 -16 0 -30 -4 -30 -10 0 -5 -9 -10
-21 -10 -11 0 -57 -10 -102 -21 -119 -31 -386 -31 -501 0 -44 11 -87 21 -98
21 -10 0 -18 5 -18 10 0 6 -11 10 -25 10 -14 0 -25 5 -25 10 0 6 -8 10 -18 10
-10 0 -44 16 -76 35 -32 19 -62 35 -67 35 -5 0 -9 4 -9 8 0 4 -14 16 -32 27
-44 26 -188 170 -188 188 0 8 -6 17 -13 20 -7 2 -22 23 -32 46 -11 22 -23 41
-27 41 -3 0 -10 15 -13 33 -4 17 -10 34 -14 37 -7 5 -39 107 -60 186 -6 23
-11 68 -11 101 0 48 4 65 23 85 43 49 55 66 62 89 4 13 15 35 24 49 32 48 43
123 39 281 -2 115 0 153 10 156 6 3 12 13 12 24 0 10 4 19 9 19 5 0 12 8 15
18 4 10 14 27 24 38 9 11 28 35 42 54 39 56 140 163 216 228 68 59 72 62 79
62 3 0 19 13 35 28 16 16 48 37 70 47 22 10 40 22 40 27 0 4 7 8 15 8 8 0 15
5 15 10 0 6 7 10 15 10 8 0 38 13 68 29 29 16 67 32 85 36 18 3 32 11 32 16 0
5 14 9 30 9 17 0 30 4 30 9 0 5 15 11 33 14 17 3 55 11 82 16 166 36 196 39
305 36 63 -2 132 -7 153 -11z"/>
<path d="M8240 5175 c0 -248 -1 -255 -20 -255 -11 0 -20 5 -20 10 0 6 -6 10
-14 10 -7 0 -39 11 -70 25 -48 21 -72 25 -156 25 -85 0 -107 -4 -162 -27 -35
-15 -65 -30 -68 -33 -3 -3 -21 -17 -40 -30 -75 -52 -124 -127 -177 -270 -38
-101 -45 -158 -40 -320 4 -158 15 -229 42 -283 8 -17 15 -35 15 -40 0 -43 127
-217 159 -217 6 0 11 -4 11 -8 0 -4 26 -17 58 -27 113 -39 287 -19 356 40 16
14 32 25 36 25 5 0 22 13 40 30 18 16 36 27 41 24 5 -3 9 -30 9 -60 l0 -54
169 0 c166 0 169 0 175 23 3 12 6 392 6 845 l0 822 -175 0 -175 0 0 -255z
m-105 -465 c3 -5 20 -10 36 -10 17 0 39 -5 50 -10 18 -10 19 -24 19 -310 0
-334 4 -314 -75 -350 -48 -22 -164 -28 -209 -10 -34 12 -86 63 -86 83 0 9 -4
18 -9 21 -37 23 -36 426 1 426 4 0 8 9 8 20 0 11 5 20 10 20 6 0 10 8 10 18 0
34 78 92 124 92 14 0 26 5 26 10 0 6 20 10 44 10 25 0 48 -4 51 -10z"/>
<path d="M11300 5285 l0 -145 188 2 187 3 3 143 3 142 -191 0 -190 0 0 -145z"/>
<path d="M4040 5205 l0 -155 225 0 225 0 0 -655 0 -655 190 0 190 0 0 655 0
655 223 2 222 3 3 153 3 152 -641 0 -640 0 0 -155z"/>
<path d="M10140 4550 l0 -810 185 0 185 0 2 348 3 347 293 3 292 2 0 150 0
150 -292 2 -293 3 0 153 0 153 318 -1 317 -1 0 156 0 155 -505 0 -505 0 0
-810z"/>
<path d="M6550 4989 c-41 -4 -100 -14 -130 -22 -30 -8 -74 -18 -97 -22 l-43
-7 0 -143 c0 -106 3 -144 13 -148 7 -2 35 6 62 19 27 14 67 27 87 31 21 3 38
9 38 14 0 5 20 9 44 9 25 0 48 5 51 10 3 6 30 10 60 10 30 0 57 -4 60 -10 3
-5 26 -10 51 -10 24 0 44 -4 44 -10 0 -5 11 -10 24 -10 15 0 36 -13 55 -35 25
-28 31 -45 31 -80 l0 -44 -42 -5 c-24 -3 -91 -8 -151 -12 -59 -3 -110 -10
-113 -15 -3 -5 -23 -9 -44 -9 -21 0 -42 -4 -45 -10 -3 -5 -15 -10 -25 -10 -37
0 -135 -55 -182 -103 -51 -50 -88 -113 -88 -147 0 -11 -4 -20 -10 -20 -6 0
-10 -43 -10 -110 0 -67 4 -110 10 -110 6 0 10 -9 10 -20 0 -28 63 -147 85
-162 6 -3 21 -16 35 -28 44 -39 112 -62 197 -67 68 -5 93 -2 155 18 40 13 75
27 76 31 2 5 8 8 13 8 11 0 17 4 75 54 23 20 44 36 48 36 3 0 6 -27 6 -60 l0
-60 181 0 180 0 -3 487 c-2 378 -6 487 -15 491 -7 2 -13 15 -13 28 0 13 -4 24
-10 24 -5 0 -10 7 -10 15 0 26 -102 135 -126 135 -7 0 -14 3 -16 8 -7 16 -148
54 -233 63 -103 10 -179 9 -285 -2z m350 -803 l0 -135 -27 -20 c-16 -12 -33
-25 -40 -31 -7 -5 -21 -10 -33 -10 -11 0 -20 -4 -20 -10 0 -6 -30 -10 -70 -10
-40 0 -70 4 -70 10 0 6 -10 10 -22 10 -38 0 -68 58 -68 132 0 48 5 69 23 95
22 32 70 63 100 63 9 0 19 5 22 10 3 6 30 10 58 10 29 0 59 5 67 10 8 5 30 10
48 10 l32 0 0 -134z"/>
<path d="M9298 4990 c-37 -4 -81 -15 -98 -23 -16 -9 -43 -18 -60 -22 -16 -4
-30 -10 -30 -13 0 -4 -13 -13 -28 -20 -34 -15 -152 -124 -152 -140 0 -7 -4
-12 -9 -12 -25 0 -101 -211 -101 -282 0 -26 -4 -48 -10 -48 -6 0 -10 -33 -10
-79 0 -44 5 -83 10 -86 6 -3 10 -27 10 -53 0 -55 22 -131 50 -179 11 -19 20
-41 20 -49 0 -8 5 -14 10 -14 6 0 10 -5 10 -12 0 -6 31 -41 68 -77 66 -63 138
-111 168 -111 8 0 14 -4 14 -9 0 -8 58 -22 175 -41 65 -11 226 -11 290 0 125
21 185 35 185 42 0 4 11 8 25 8 14 0 25 5 25 10 0 6 8 10 18 10 9 0 25 7 35
14 15 12 17 32 17 159 0 92 -4 148 -11 152 -13 8 -69 -13 -89 -34 -21 -23
-123 -71 -148 -71 -12 0 -22 -4 -22 -10 0 -5 -21 -10 -46 -10 -26 0 -64 -5
-86 -12 -29 -9 -41 -9 -50 0 -7 7 -31 12 -55 12 -24 0 -51 4 -61 9 -9 5 -32
15 -51 22 -52 19 -105 80 -130 148 -12 34 -21 72 -19 84 l3 22 393 3 392 2 0
125 c0 72 -4 126 -10 130 -5 3 -10 22 -10 42 0 79 -62 213 -133 287 -29 31
-59 56 -65 56 -7 0 -12 4 -12 8 0 5 -37 21 -83 35 -93 31 -227 41 -339 27z
m166 -241 c44 -12 76 -41 101 -90 21 -39 43 -129 37 -147 -3 -9 -59 -12 -217
-12 -185 0 -214 2 -219 16 -9 23 -7 52 3 72 5 9 16 32 23 50 7 17 16 32 20 32
5 0 8 7 8 15 0 8 4 15 8 15 5 0 18 9 29 19 40 37 133 51 207 30z"/>
<path d="M13740 4990 c-60 -7 -193 -49 -198 -62 -2 -4 -10 -8 -18 -8 -8 0 -14
-4 -14 -8 0 -4 -12 -15 -27 -24 -34 -20 -113 -95 -113 -106 0 -5 -8 -17 -17
-28 -10 -10 -24 -32 -32 -49 -7 -16 -17 -38 -22 -47 -5 -10 -9 -25 -9 -33 0
-8 -4 -15 -9 -15 -13 0 -35 -164 -35 -265 -1 -113 29 -280 54 -305 3 -3 12
-21 22 -40 18 -40 39 -67 85 -115 36 -38 116 -95 132 -95 6 0 11 -4 11 -10 0
-5 8 -10 18 -10 10 0 22 -4 28 -9 36 -33 347 -62 454 -43 158 29 186 35 194
43 6 5 18 9 28 9 10 0 18 4 18 8 0 4 15 12 33 17 l32 10 3 158 c1 97 -1 157
-7 157 -19 0 -66 -24 -82 -42 -9 -10 -21 -18 -27 -18 -5 0 -30 -11 -53 -25
-24 -14 -54 -25 -66 -25 -12 0 -25 -4 -28 -10 -3 -5 -28 -10 -55 -10 -27 0
-61 -5 -75 -12 -21 -9 -31 -9 -46 0 -10 7 -41 12 -69 12 -27 0 -50 5 -50 10 0
6 -11 10 -23 10 -13 0 -34 9 -47 20 -12 11 -30 22 -40 25 -9 3 -22 17 -28 30
-6 14 -16 25 -21 25 -5 0 -12 18 -16 40 -4 22 -11 40 -16 40 -5 0 -9 20 -9 45
l0 45 391 0 390 0 -4 138 c-4 138 -24 282 -39 282 -4 0 -8 8 -8 18 0 9 -9 28
-20 42 -11 14 -20 28 -20 32 0 9 -38 55 -65 79 -63 56 -84 69 -139 89 -98 36
-218 46 -346 30z m169 -242 c43 -15 91 -62 91 -89 0 -10 5 -19 10 -19 6 0 10
-13 10 -29 0 -17 5 -33 10 -36 6 -3 10 -22 10 -41 l0 -34 -220 0 -220 0 0 45
c0 25 5 45 10 45 6 0 10 10 10 23 0 34 54 107 79 107 6 0 11 4 11 9 0 26 139
39 199 19z"/>
<path d="M12530 4964 c-35 -14 -74 -34 -85 -44 -12 -11 -26 -20 -33 -20 -6 0
-17 -8 -24 -18 -12 -17 -49 -42 -62 -42 -3 0 -6 26 -6 58 l0 57 -152 -2 c-84
-2 -165 -3 -180 -3 l-28 0 0 -605 0 -605 180 0 180 0 0 433 c0 237 4 437 8
442 10 14 89 52 139 66 73 21 183 -23 183 -73 0 -10 5 -18 10 -18 6 0 10 -24
10 -54 0 -30 5 -58 10 -61 6 -4 10 -138 10 -371 l0 -364 170 0 170 0 -3 478
c-2 353 -7 491 -16 530 -8 28 -18 52 -22 52 -5 0 -9 7 -9 15 0 35 -86 118
-153 149 -80 36 -202 36 -297 0z"/>
<path d="M5518 4952 l-168 -2 0 -605 0 -605 170 0 170 0 0 403 c0 221 4 407 8
413 4 7 27 17 52 24 25 6 53 16 62 21 10 5 81 9 158 9 l140 0 0 175 0 175 -55
0 c-64 0 -155 -18 -155 -31 0 -5 -9 -9 -20 -9 -11 0 -20 -3 -20 -8 0 -4 -12
-13 -27 -19 -16 -7 -45 -28 -66 -47 -62 -58 -71 -53 -77 34 l-5 75 -167 -3z"/>
<path d="M11330 4952 c-7 -3 -10 -214 -10 -608 l0 -604 170 0 170 0 0 608 0
607 -160 0 c-88 0 -164 -1 -170 -3z"/>
<path d="M14474 4949 c-2 -4 8 -19 21 -35 14 -16 28 -37 31 -48 3 -10 17 -30
29 -45 30 -33 69 -90 78 -113 3 -10 11 -18 17 -18 5 0 10 -9 10 -19 0 -11 3
-21 8 -23 12 -5 62 -76 62 -87 0 -6 5 -11 10 -11 6 0 10 -6 10 -14 0 -8 3 -16
8 -18 4 -1 25 -30 47 -63 22 -33 42 -62 45 -65 22 -22 26 -46 11 -60 -9 -8
-23 -27 -31 -41 -8 -14 -42 -65 -75 -113 -33 -48 -64 -96 -70 -107 -5 -10 -13
-19 -17 -19 -5 0 -8 -7 -8 -15 0 -8 -4 -15 -9 -15 -9 0 -48 -58 -63 -93 -4 -9
-14 -20 -23 -23 -8 -4 -15 -15 -15 -25 0 -10 -3 -19 -8 -19 -4 0 -16 -16 -26
-35 -11 -19 -22 -35 -26 -35 -4 0 -12 -11 -18 -25 l-12 -25 194 0 c202 0 226
3 226 26 0 8 16 36 35 63 19 26 35 53 35 60 0 6 4 11 8 11 5 0 22 24 37 53 32
57 33 59 70 101 14 16 26 27 28 25 2 -2 15 -21 30 -41 15 -20 27 -43 27 -50 0
-8 9 -20 20 -28 11 -8 20 -18 20 -23 0 -4 16 -31 35 -60 19 -28 35 -57 35 -64
0 -7 5 -13 10 -13 6 0 10 -4 10 -10 0 -5 8 -19 17 -30 16 -19 29 -20 220 -20
l203 0 -12 23 c-7 12 -16 24 -19 27 -3 3 -22 30 -42 60 -20 30 -41 60 -47 67
-5 7 -10 17 -10 23 0 5 -4 10 -9 10 -5 0 -14 14 -21 30 -7 17 -16 30 -20 30
-4 0 -15 16 -26 35 -10 19 -22 35 -26 35 -5 0 -8 5 -8 11 0 9 -46 76 -80 116
-5 7 -10 17 -10 23 0 5 -4 10 -10 10 -5 0 -10 6 -10 13 0 6 -13 27 -29 46 -35
41 -43 67 -28 84 21 22 57 76 57 84 0 5 9 15 20 23 11 8 20 18 20 23 0 7 50
78 80 114 5 7 10 16 10 21 0 5 16 30 35 55 19 25 35 49 35 52 0 4 7 13 15 22
9 8 34 43 57 77 23 33 46 64 51 67 19 13 -1 35 -29 33 -16 0 -104 -2 -196 -2
-138 -2 -168 -5 -168 -16 0 -8 -4 -16 -8 -18 -12 -5 -102 -144 -102 -157 0 -6
-4 -11 -10 -11 -5 0 -10 -7 -10 -15 0 -8 -4 -15 -8 -15 -4 0 -18 -20 -30 -45
-12 -25 -28 -45 -37 -45 -15 0 -42 37 -86 120 -13 25 -27 47 -31 48 -5 2 -8
10 -8 18 0 8 -4 14 -8 14 -5 0 -15 12 -23 27 -8 15 -20 35 -26 43 -7 8 -18 23
-25 32 -11 15 -39 17 -211 20 -110 2 -201 0 -203 -3z"/>
<path d="M9675 3534 c-6 -2 -9 -42 -7 -98 l4 -95 -38 10 c-36 10 -124 4 -134
-9 -3 -4 -14 -12 -24 -18 -11 -6 -24 -19 -30 -30 -6 -10 -15 -22 -19 -25 -5
-3 -13 -36 -20 -72 -19 -112 18 -206 94 -237 39 -16 123 -8 145 15 16 16 19
16 29 1 7 -9 22 -16 34 -16 21 0 21 0 21 290 l0 290 -22 -1 c-13 0 -27 -2 -33
-5z m-15 -239 c6 -4 10 -60 10 -130 0 -147 -4 -155 -83 -155 -29 0 -57 4 -63
8 -27 19 -58 88 -58 131 -1 55 34 133 67 149 21 11 108 9 127 -3z"/>
<path d="M15512 3533 c-6 -2 -9 -10 -5 -16 4 -6 7 -133 7 -282 l1 -270 25 -3
c14 -1 32 2 40 8 12 8 13 13 3 30 -10 14 -13 83 -13 250 0 167 3 236 13 250
10 17 9 22 -3 30 -16 10 -47 12 -68 3z"/>
<path d="M6780 3487 c-3 -3 -5 -122 -5 -264 l1 -258 33 -3 33 -3 -4 102 -3
102 81 16 c132 27 184 78 184 181 0 42 -5 54 -35 87 l-35 38 -122 3 c-68 2
-125 2 -128 -1z m225 -77 c21 -20 25 -33 25 -82 0 -32 -4 -58 -9 -58 -5 0 -17
-7 -25 -16 -11 -10 -42 -18 -91 -21 l-75 -6 0 100 c0 55 3 103 8 107 4 5 38 6
75 3 53 -3 73 -9 92 -27z"/>
<path d="M10080 3226 l0 -266 88 0 c86 0 182 21 182 40 0 5 8 11 19 15 21 6
51 76 51 118 0 46 -45 107 -79 107 -27 0 -26 6 2 33 12 12 28 32 35 44 14 27
16 103 2 103 -5 0 -10 6 -10 13 0 7 -10 21 -22 32 -19 16 -43 20 -145 23
l-123 4 0 -266z m221 185 c26 -32 25 -85 -3 -111 -28 -26 -52 -32 -113 -28
l-49 3 -4 60 c-1 33 0 70 3 83 6 23 9 24 77 20 59 -3 73 -8 89 -27z m-28 -205
c59 -21 77 -43 77 -90 -1 -45 -18 -76 -44 -76 -9 0 -16 -4 -16 -10 0 -6 -32
-10 -75 -10 l-75 0 0 100 0 100 48 0 c26 -1 64 -7 85 -14z"/>
<path d="M11088 3484 c6 -3 12 -14 12 -25 0 -10 4 -19 9 -19 5 0 12 -10 15
-22 3 -13 19 -38 36 -57 16 -18 30 -40 30 -47 0 -8 5 -14 10 -14 6 0 10 -7 10
-15 0 -8 5 -15 10 -15 6 0 10 -9 10 -20 0 -11 -4 -20 -10 -20 -5 0 -10 -6 -10
-14 0 -8 -3 -16 -7 -18 -11 -4 -83 -116 -83 -127 0 -5 -3 -11 -7 -13 -14 -5
-53 -85 -46 -92 3 -3 19 -6 34 -6 24 0 31 8 58 65 17 36 31 70 31 75 0 6 5 10
10 10 6 0 10 9 10 20 0 11 3 20 8 20 4 0 13 14 21 31 l13 30 24 -22 c13 -12
24 -31 24 -41 0 -10 5 -18 10 -18 6 0 10 -4 10 -9 0 -5 16 -35 35 -67 19 -32
35 -66 35 -76 0 -14 8 -18 38 -18 21 0 42 3 45 6 7 7 -42 107 -55 112 -5 2 -8
8 -8 13 0 6 -5 15 -10 22 -6 7 -26 36 -45 66 -19 30 -40 58 -46 62 -8 4 -1 22
22 54 19 26 41 57 49 69 8 11 18 23 23 24 4 2 7 10 7 18 0 8 4 14 8 14 5 0 16
16 25 35 l17 35 -35 0 c-31 0 -37 -5 -70 -63 -19 -35 -35 -69 -35 -76 0 -6 -9
-22 -21 -34 l-21 -22 -24 30 c-13 17 -24 36 -24 43 0 6 -4 12 -10 12 -5 0 -10
9 -10 20 0 11 -4 20 -10 20 -5 0 -13 15 -18 33 -8 30 -11 32 -58 34 -27 1 -43
0 -36 -3z"/>
<path d="M11584 3226 c-1 -263 0 -266 20 -266 12 -1 46 -3 76 -6 91 -9 176 32
248 120 6 8 12 24 12 35 0 11 5 21 12 23 17 6 18 210 0 216 -6 2 -12 12 -12
23 0 10 -4 19 -8 19 -5 0 -14 11 -20 25 -6 14 -18 25 -27 25 -8 0 -15 5 -15
10 0 6 -9 10 -19 10 -11 0 -21 5 -23 12 -3 8 -44 13 -124 16 l-119 4 -1 -266z
m176 203 c49 -15 93 -54 121 -107 19 -37 21 -54 16 -117 -4 -55 -11 -82 -29
-107 -32 -45 -45 -58 -57 -58 -6 0 -11 -4 -11 -9 0 -12 -85 -24 -120 -16 l-30
7 0 209 0 209 36 0 c20 0 54 -5 74 -11z"/>
<path d="M12238 3483 c-10 -2 -18 -9 -18 -14 0 -5 -7 -9 -15 -9 -9 0 -30 -15
-48 -33 -76 -77 -107 -216 -70 -309 45 -114 123 -168 243 -168 82 0 110 11
110 43 0 22 -3 23 -92 22 -64 0 -93 4 -95 13 -3 6 -9 12 -15 12 -17 0 -67 57
-74 85 -3 14 -10 25 -15 25 -5 0 -9 34 -9 75 0 43 4 75 10 75 6 0 10 11 10 24
0 33 64 93 114 107 21 6 61 7 87 4 l49 -7 0 31 0 31 -77 -1 c-43 -1 -86 -3
-95 -6z"/>
<path d="M12750 3483 c0 -4 -1 -123 -1 -263 l0 -255 30 -3 c35 -4 33 -12 31
119 l-1 86 55 6 c69 7 136 36 176 77 27 28 30 36 30 99 0 52 -4 73 -19 89 -10
12 -23 22 -29 22 -6 0 -12 6 -14 13 -5 14 -258 24 -258 10z m205 -57 c18 -8
39 -24 45 -37 14 -26 7 -112 -9 -117 -6 -2 -18 -10 -26 -18 -9 -9 -44 -18 -85
-21 l-70 -6 0 100 c0 55 3 103 7 106 12 12 103 7 138 -7z"/>
<path d="M13969 3453 c-1 -5 -2 -12 -4 -18 -1 -5 -3 -31 -3 -57 -2 -46 -3 -48
-32 -48 -25 0 -30 -4 -30 -24 0 -19 6 -25 27 -28 26 -3 26 -4 24 -74 -3 -83
14 -187 35 -219 17 -26 70 -40 115 -30 23 5 29 12 29 34 0 24 -3 26 -38 26
-64 0 -72 16 -72 149 l0 116 55 0 55 0 0 36 c0 30 -3 35 -17 29 -10 -4 -35 -9
-55 -12 l-38 -6 0 67 c0 64 -1 66 -25 66 -14 0 -26 -3 -26 -7z"/>
<path d="M7335 3360 c-3 -5 -15 -10 -26 -10 -10 0 -19 -4 -19 -10 0 -5 -5 -10
-12 -10 -7 0 -25 -15 -40 -32 -35 -41 -51 -118 -42 -199 6 -53 12 -67 44 -100
42 -44 71 -53 143 -47 59 5 94 29 133 90 21 32 24 50 24 124 0 73 -3 91 -22
117 -29 42 -59 66 -80 67 -9 0 -20 5 -23 10 -3 6 -21 10 -40 10 -19 0 -37 -4
-40 -10z m79 -56 c9 -3 16 -12 16 -20 0 -8 5 -14 10 -14 6 0 10 -6 10 -14 0
-8 6 -16 12 -18 16 -6 17 -166 2 -176 -6 -4 -13 -15 -17 -24 -9 -24 -77 -43
-113 -31 -86 28 -111 190 -42 269 24 28 37 34 68 34 21 0 45 -3 54 -6z"/>
<path d="M8400 3360 c0 -5 -9 -10 -20 -10 -23 0 -90 -56 -90 -76 0 -7 -5 -14
-11 -16 -17 -6 -18 -190 -1 -195 6 -3 12 -12 12 -21 0 -9 18 -32 40 -50 36
-29 50 -34 113 -39 86 -6 122 6 129 41 l5 26 -72 -7 c-92 -7 -133 10 -162 70
-11 23 -18 48 -16 55 3 9 38 12 129 12 l124 0 0 55 c0 80 -41 145 -90 145 -11
0 -20 5 -20 10 0 6 -16 10 -35 10 -19 0 -35 -4 -35 -10z m88 -68 c11 -10 23
-34 27 -54 l7 -37 -96 -3 c-91 -3 -96 -2 -96 17 2 74 104 124 158 77z"/>
<path d="M8840 3358 c0 -4 -7 -8 -15 -8 -15 0 -25 -7 -60 -38 -13 -11 -15 -10
-15 13 0 24 -3 26 -32 23 -18 -2 -32 -6 -30 -10 1 -5 2 -92 2 -194 l0 -185 33
3 32 3 2 125 c2 69 5 135 8 146 3 12 21 32 41 43 31 18 42 20 67 11 35 -12 32
-14 40 28 6 29 4 32 -18 32 -14 0 -25 4 -25 8 0 5 -7 9 -15 9 -8 0 -15 -4 -15
-9z"/>
<path d="M9110 3360 c0 -5 -9 -10 -20 -10 -11 0 -20 -4 -20 -10 0 -5 -5 -10
-11 -10 -31 0 -79 -101 -79 -166 0 -52 18 -124 32 -124 4 0 8 -5 8 -11 0 -19
46 -56 85 -69 55 -18 164 -9 181 15 25 33 11 40 -81 40 -62 0 -90 4 -92 13 -3
6 -10 12 -16 12 -17 1 -43 40 -51 78 l-8 32 131 0 131 0 0 50 c0 70 -45 150
-84 150 -8 0 -18 5 -21 10 -3 6 -24 10 -46 10 -21 0 -39 -4 -39 -10z m103 -80
c15 -16 27 -41 27 -55 0 -25 -1 -25 -85 -25 -47 0 -88 0 -92 0 -5 0 -9 11 -11
24 -2 18 6 35 28 56 43 42 96 42 133 0z"/>
<path d="M13326 3361 c-4 -6 -17 -11 -29 -11 -13 0 -29 -11 -38 -26 l-16 -26
-7 26 c-5 20 -13 26 -34 26 l-28 0 3 -192 4 -193 27 0 27 0 2 125 c3 150 6
165 37 185 28 19 83 27 92 14 8 -14 34 16 34 40 0 15 -6 21 -23 21 -13 0 -28
5 -34 11 -8 8 -13 8 -17 0z"/>
<path d="M13593 3357 c-18 -6 -33 -15 -33 -19 0 -4 -5 -8 -10 -8 -16 0 -53
-41 -68 -74 -24 -53 -27 -141 -7 -193 20 -51 23 -55 69 -91 34 -26 121 -30
165 -8 37 20 91 82 91 106 0 10 5 22 10 25 12 7 14 142 3 147 -5 2 -16 20 -26
42 -10 21 -27 40 -37 43 -11 3 -20 9 -20 14 0 5 -9 9 -19 9 -11 0 -23 5 -26
10 -8 12 -49 11 -92 -3z m98 -60 c27 -21 47 -60 53 -108 7 -50 -7 -134 -27
-153 -56 -57 -148 -37 -177 38 -13 36 -13 141 1 169 29 57 108 86 150 54z"/>
<path d="M14360 3360 c0 -5 -9 -10 -20 -10 -11 0 -20 -4 -20 -10 0 -5 -7 -10
-14 -10 -16 0 -66 -60 -66 -78 0 -7 -4 -12 -10 -12 -6 0 -10 -38 -10 -95 l0
-94 51 -52 50 -51 68 4 c56 3 75 9 105 31 20 16 36 35 36 43 0 7 5 14 10 14 6
0 10 7 10 15 0 8 5 15 10 15 6 0 10 38 10 95 0 57 -4 95 -10 95 -5 0 -10 5
-10 11 0 19 -67 79 -89 79 -12 0 -21 5 -21 10 0 6 -18 10 -40 10 -22 0 -40 -4
-40 -10z m93 -74 c40 -44 44 -52 51 -99 18 -120 -54 -209 -146 -178 -82 28
-103 199 -33 274 35 36 96 38 128 3z"/>
<path d="M14845 3361 c-3 -6 -19 -11 -36 -11 -16 0 -29 -4 -29 -9 0 -5 -10
-12 -22 -15 -13 -3 -36 -26 -51 -51 -27 -43 -29 -51 -25 -133 2 -74 6 -91 26
-112 12 -13 22 -27 22 -30 0 -16 91 -50 131 -50 70 0 89 9 89 39 0 26 -1 26
-72 26 -48 0 -73 4 -75 13 -3 6 -11 12 -19 12 -8 0 -14 7 -14 15 0 8 -4 15
-10 15 -5 0 -10 9 -10 19 0 11 -4 23 -10 26 -5 3 -10 26 -10 51 0 24 5 44 10
44 6 0 10 10 10 23 0 14 13 30 35 45 28 20 44 23 92 20 56 -3 58 -2 61 23 3
22 -2 27 -25 31 -15 3 -35 8 -44 12 -10 4 -20 3 -24 -3z"/>
<path d="M15190 3360 c0 -5 -10 -10 -21 -10 -12 0 -41 -20 -66 -45 -42 -42
-46 -49 -50 -109 -3 -35 -2 -88 2 -117 6 -48 12 -58 52 -91 41 -35 49 -38 106
-38 41 0 70 6 85 16 43 30 72 61 72 78 0 9 5 16 10 16 6 0 10 16 10 35 0 19 5
35 10 35 6 0 10 16 10 35 0 19 -4 35 -10 35 -5 0 -10 16 -10 35 0 19 -4 35
-10 35 -5 0 -10 6 -10 14 0 18 -44 53 -89 72 -39 16 -91 19 -91 4z m87 -67
c54 -48 70 -142 38 -227 -21 -56 -64 -75 -124 -57 -99 29 -111 244 -16 290 32
15 80 12 102 -6z"/>
<path d="M7626 3323 c6 -28 19 -63 35 -95 5 -10 9 -23 9 -30 0 -7 16 -55 35
-106 19 -51 35 -101 35 -113 0 -16 5 -20 27 -17 23 2 29 10 40 47 7 24 17 48
22 55 5 6 12 32 16 59 4 26 11 47 16 47 5 0 9 11 9 25 0 14 5 25 10 25 6 0 10
12 11 28 0 25 2 25 19 -13 10 -22 22 -57 26 -78 4 -20 11 -40 15 -43 5 -3 9
-16 9 -30 0 -13 5 -24 10 -24 6 0 10 -6 10 -12 0 -7 5 -30 11 -50 13 -51 48
-53 67 -5 7 17 18 40 23 49 5 10 9 24 9 32 0 8 16 51 35 96 19 45 35 90 35
100 0 10 5 22 10 25 6 3 10 17 10 31 0 20 -5 24 -30 24 -24 0 -31 -5 -36 -27
-3 -16 -10 -38 -15 -51 -5 -13 -9 -36 -9 -52 0 -17 -4 -30 -10 -30 -5 0 -10
-13 -10 -30 0 -16 -4 -30 -10 -30 -5 0 -10 -13 -10 -30 0 -17 -5 -30 -13 -30
-13 0 -32 46 -50 123 -6 26 -15 47 -19 47 -4 0 -8 11 -8 24 0 14 -4 28 -10 31
-5 3 -10 17 -10 31 0 21 -5 24 -35 24 -30 0 -35 -3 -35 -23 0 -13 -3 -27 -7
-31 -4 -4 -13 -26 -19 -49 -25 -92 -60 -173 -72 -169 -6 2 -12 14 -12 27 0 13
-4 27 -10 30 -5 3 -10 17 -10 31 0 13 -4 32 -9 42 -5 9 -18 45 -27 80 -17 60
-19 62 -51 62 -31 0 -33 -2 -27 -27z"/>
<path d="M10505 3318 c4 -18 13 -40 20 -48 16 -20 45 -96 45 -119 0 -11 3 -21
8 -23 14 -6 52 -134 52 -176 0 -37 -6 -50 -34 -78 -19 -19 -43 -34 -55 -34
-24 0 -24 0 -11 -34 9 -24 10 -25 52 -13 35 10 47 20 62 52 11 22 23 48 28 57
4 10 8 29 8 43 0 14 5 25 10 25 6 0 10 12 10 26 0 14 16 62 35 107 19 44 35
89 35 99 0 10 5 18 10 18 6 0 10 8 10 18 0 10 4 22 9 28 5 5 12 26 15 47 7 36
6 37 -24 37 -17 0 -32 -6 -34 -12 -2 -7 -14 -47 -26 -88 -13 -41 -25 -90 -27
-107 -3 -18 -9 -33 -14 -33 -5 0 -9 -11 -9 -25 0 -42 -16 -28 -28 25 -7 28
-20 69 -31 91 -11 22 -22 54 -26 72 -12 60 -25 77 -62 77 -34 0 -34 -1 -28
-32z"/>
</g>
</svg>
